<?xml version="1.0" encoding="iso-8859-1"?>
<!-- Generator: Adobe Illustrator 19.0.0, SVG Export Plug-In . SVG Version: 6.00 Build 0)  -->
<svg version="1.1" id="Capa_1" xmlns="http://www.w3.org/2000/svg" xmlns:xlink="http://www.w3.org/1999/xlink" x="0px" y="0px"
	 viewBox="0 0 504.216 504.216" style="enable-background:new 0 0 504.216 504.216;" xml:space="preserve">
<g transform="translate(0 -1)">
	<g>
		<path style="fill:#CC4B4C;" d="M420.158,345.678l62.708-46.703c3.682-2.616,5.041-7.446,3.265-11.598l-13.845-31.812
			c-1.399-2.876-3.957-5.02-7.033-5.896s-6.379-0.4-9.083,1.308l-36.214,24.298L420.158,345.678z"/>
		<path style="fill:#CC4B4C;" d="M154.618,99.983l47.101-67.559c2.628-3.692,7.468-5.064,11.641-3.298l31.996,13.754
			c2.889,1.381,5.051,3.931,5.94,7.008c0.889,3.076,0.421,6.386-1.286,9.096l-24.67,41H154.618z"/>
	</g>
	<path style="fill:#95A5A5;" d="M356.701,80.457L37.129,80.421c-3.156,0.044-6.119,1.529-8.043,4.031
		c-1.924,2.502-2.598,5.747-1.83,8.808l7.634,34.066c0.964,3.693,3.842,6.581,7.532,7.559l209.063,51.566l79.183,58.887
		l51.839,202.137c1.046,3.631,3.975,6.411,7.656,7.267l31.883,7.267c3.037,0.766,6.258,0.105,8.749-1.794
		c2.491-1.899,3.98-4.83,4.046-7.962l-0.037-302.373L356.701,80.457z"/>
	<path style="fill:#ECF0F1;" d="M313.336,123.813H165.803c-4.793,0-8.678-3.885-8.678-8.678c0-4.793,3.885-8.678,8.678-8.678
		h147.534c4.793,0,8.678,3.885,8.678,8.678C322.015,119.928,318.13,123.813,313.336,123.813L313.336,123.813z"/>
	<path style="fill:#95A5A5;" d="M138.339,310.918h-0.087l-126.188-6.649c-2.819-0.391-5.677,0.358-7.942,2.081
		S0.374,310.63,0,313.451l0.26,21.451c0.206,3.627,2.565,6.778,5.988,7.995l70.645,30.792l61.966,55.978l30.576,68.302
		c1.234,3.409,4.4,5.738,8.021,5.902h21.602c2.838-0.341,5.418-1.815,7.153-4.087c1.735-2.272,2.478-5.149,2.059-7.977
		l-7.307-124.106L138.339,310.918z"/>
	<path style="fill:#BDC3C7;" d="M117.422,436.126l-26.549,0.122c-11.218,0.052-20.258-5.542-20.192-16.711l0.157-26.462
		c0.018-2.482,0.942-4.872,2.598-6.722L388.128,34.045c4.933-5.521,10.784-10.146,17.295-13.67l0,0
		c5.685-3.078,11.802-5.277,18.146-6.522L480.18,2.749c6.533-1.328,13.299,0.679,18.05,5.355c4.752,4.676,6.868,11.408,5.646,17.962
		l-12.268,66.022c-1.348,6.995-4.763,13.425-9.804,18.458l-357.501,322.89C122.421,435.153,119.97,436.112,117.422,436.126
		L117.422,436.126z"/>
	<path style="fill:#41767F;" d="M452.201,97.779c-2.302,0.001-4.509-0.913-6.137-2.541s-2.542-3.835-2.541-6.137V63.063H417.48
		c-4.793,0-8.678-3.885-8.678-8.678c0-4.793,3.885-8.678,8.678-8.678h26.043c9.581,0.011,17.345,7.775,17.356,17.356v26.038
		c0.001,2.302-0.913,4.509-2.541,6.137C456.71,96.866,454.502,97.78,452.201,97.779L452.201,97.779z"/>
	<g>
		<path style="fill:#ECF0F1;" d="M399.83,184.593h0.26c2.308-0.023,4.529,0.884,6.161,2.517c1.632,1.632,2.539,3.853,2.517,6.161
			v147.525c0,4.793-3.885,8.678-8.678,8.678s-8.678-3.885-8.678-8.678V193.271c-0.018-0.378,0.011-0.757,0.087-1.128L399.83,184.593
			z"/>
		<path style="fill:#ECF0F1;" d="M52.98,462.275c-3.509-0.001-6.673-2.115-8.016-5.357s-0.601-6.974,1.88-9.456l52.068-52.072
			c3.397-3.341,8.852-3.318,12.22,0.05c3.369,3.369,3.391,8.824,0.05,12.22l-52.068,52.072
			C57.49,461.363,55.282,462.278,52.98,462.275z"/>
		<path style="fill:#ECF0F1;" d="M261.26,253.995c-3.509-0.001-6.673-2.115-8.016-5.357c-1.343-3.242-0.601-6.974,1.88-9.456
			L385.312,109c2.192-2.192,5.387-3.048,8.381-2.246c2.994,0.802,5.333,3.141,6.136,6.136s-0.054,6.189-2.246,8.381L267.396,251.453
			C265.77,253.083,263.562,253.998,261.26,253.995z"/>
	</g>
</g>
<g>
</g>
<g>
</g>
<g>
</g>
<g>
</g>
<g>
</g>
<g>
</g>
<g>
</g>
<g>
</g>
<g>
</g>
<g>
</g>
<g>
</g>
<g>
</g>
<g>
</g>
<g>
</g>
<g>
</g>
</svg>
