<?xml version="1.0" encoding="iso-8859-1"?>
<!-- Generator: Adobe Illustrator 19.0.0, SVG Export Plug-In . SVG Version: 6.00 Build 0)  -->
<svg version="1.1" id="Layer_1" xmlns="http://www.w3.org/2000/svg" xmlns:xlink="http://www.w3.org/1999/xlink" x="0px" y="0px"
	 viewBox="0 0 512 512" style="enable-background:new 0 0 512 512;" xml:space="preserve">
<g>
	<g>
		<path style="fill:#E2B769;" d="M30.373,260.339c-3.523,0-6.838-2.161-8.131-5.658c-1.675-4.504,0.625-9.494,5.111-11.151
			l234.305-86.788c4.521-1.675,9.494,0.633,11.151,5.12c1.675,4.504-0.625,9.494-5.111,11.151L33.393,259.801
			C32.386,260.165,31.371,260.339,30.373,260.339"/>
		<path style="fill:#E2B769;" d="M481.627,260.339c-1.076,0-2.169-0.191-3.22-0.616l-161.532-64.625
			c-4.452-1.779-6.621-6.83-4.842-11.273c1.779-4.469,6.864-6.621,11.281-4.842l161.532,64.616c4.452,1.779,6.621,6.83,4.842,11.281
			C488.327,258.282,485.064,260.339,481.627,260.339"/>
	</g>
	<path style="fill:#EE8472;" d="M507.661,512H4.339v-13.781c0-7.845,3.115-15.369,8.661-20.923l0.035-0.026
		c5.545-5.545,8.661-13.069,8.661-20.914V307.313c0-7.854-3.124-15.386-8.678-20.931c-5.554-5.554-8.678-13.086-8.678-20.94v-13.781
		h503.322v13.772c0,7.845-3.115,15.369-8.661,20.923l-0.035,0.026c-5.545,5.545-8.661,13.069-8.661,20.923v149.07
		c0,7.836,3.107,15.351,8.643,20.897l0.069,0.078c5.537,5.545,8.643,13.06,8.643,20.888V512z"/>
	<g>
		<path style="fill:#DB776A;" d="M229.966,477.288c-4.799,0-8.678-3.879-8.678-8.678V295.051c0-4.799,3.879-8.678,8.678-8.678
			c4.799,0,8.678,3.879,8.678,8.678V468.61C238.644,473.409,234.765,477.288,229.966,477.288"/>
		<path style="fill:#DB776A;" d="M177.898,477.288c-4.799,0-8.678-3.879-8.678-8.678V295.051c0-4.799,3.879-8.678,8.678-8.678
			c4.799,0,8.678,3.879,8.678,8.678V468.61C186.576,473.409,182.697,477.288,177.898,477.288"/>
		<path style="fill:#DB776A;" d="M125.831,477.288c-4.799,0-8.678-3.879-8.678-8.678V295.051c0-4.799,3.879-8.678,8.678-8.678
			c4.799,0,8.678,3.879,8.678,8.678V468.61C134.508,473.409,130.629,477.288,125.831,477.288"/>
		<path style="fill:#DB776A;" d="M73.763,477.288c-4.799,0-8.678-3.879-8.678-8.678V295.051c0-4.799,3.879-8.678,8.678-8.678
			c4.799,0,8.678,3.879,8.678,8.678V468.61C82.441,473.409,78.562,477.288,73.763,477.288"/>
		<path style="fill:#DB776A;" d="M438.237,477.288c-4.799,0-8.678-3.879-8.678-8.678V295.051c0-4.799,3.879-8.678,8.678-8.678
			c4.799,0,8.678,3.879,8.678,8.678V468.61C446.915,473.409,443.036,477.288,438.237,477.288"/>
		<path style="fill:#DB776A;" d="M386.169,477.288c-4.799,0-8.678-3.879-8.678-8.678V295.051c0-4.799,3.879-8.678,8.678-8.678
			s8.678,3.879,8.678,8.678V468.61C394.847,473.409,390.968,477.288,386.169,477.288"/>
		<path style="fill:#DB776A;" d="M334.102,477.288c-4.799,0-8.678-3.879-8.678-8.678V295.051c0-4.799,3.879-8.678,8.678-8.678
			c4.799,0,8.678,3.879,8.678,8.678V468.61C342.78,473.409,338.901,477.288,334.102,477.288"/>
		<path style="fill:#DB776A;" d="M282.034,477.288c-4.799,0-8.678-3.879-8.678-8.678V295.051c0-4.799,3.879-8.678,8.678-8.678
			s8.678,3.879,8.678,8.678V468.61C290.712,473.409,286.833,477.288,282.034,477.288"/>
	</g>
	<path style="fill:#B0B6BB;" d="M264.678,208.271c-23.925,0-43.39-19.465-43.39-43.39c0-4.799,3.879-8.678,8.678-8.678
		c4.799,0,8.678,3.879,8.678,8.678c0,14.353,11.681,26.034,26.034,26.034c14.353,0,26.034-11.681,26.034-26.034
		c0-14.353-11.681-26.034-26.034-26.034c-4.799,0-8.678-3.879-8.678-8.678v-26.034c0-4.799,3.879-8.678,8.678-8.678
		c4.799,0,8.678,3.879,8.678,8.678v18.232c19.777,4.027,34.712,21.556,34.712,42.513
		C308.068,188.807,288.603,208.271,264.678,208.271"/>
	<g>
		<path style="fill:#E2B769;" d="M229.966,78.102c-4.799,0-8.678-3.879-8.678-8.678V8.678c0-4.799,3.879-8.678,8.678-8.678
			c4.799,0,8.678,3.879,8.678,8.678v60.746C238.644,74.223,234.765,78.102,229.966,78.102"/>
		<path style="fill:#E2B769;" d="M299.39,78.102c-4.799,0-8.678-3.879-8.678-8.678V8.678c0-4.799,3.879-8.678,8.678-8.678
			s8.678,3.879,8.678,8.678v60.746C308.068,74.223,304.189,78.102,299.39,78.102"/>
		<path style="fill:#E2B769;" d="M273.381,177.043c-1.076,0-2.169-0.191-3.22-0.616l-8.704-3.489
			c-4.46-1.779-6.621-6.83-4.842-11.273c1.779-4.469,6.864-6.621,11.281-4.842l8.704,3.48c4.461,1.779,6.621,6.83,4.842,11.281
			C280.072,174.986,276.818,177.043,273.381,177.043"/>
	</g>
	<path style="fill:#E6E7E8;" d="M264.678,112.814c-23.925,0-43.39-19.465-43.39-43.39s19.465-43.39,43.39-43.39
		s43.39,19.465,43.39,43.39S288.603,112.814,264.678,112.814"/>
</g>
<g>
</g>
<g>
</g>
<g>
</g>
<g>
</g>
<g>
</g>
<g>
</g>
<g>
</g>
<g>
</g>
<g>
</g>
<g>
</g>
<g>
</g>
<g>
</g>
<g>
</g>
<g>
</g>
<g>
</g>
</svg>
