<?xml version="1.0" encoding="iso-8859-1"?>
<!-- Generator: Adobe Illustrator 19.0.0, SVG Export Plug-In . SVG Version: 6.00 Build 0)  -->
<svg version="1.1" id="Layer_1" xmlns="http://www.w3.org/2000/svg" xmlns:xlink="http://www.w3.org/1999/xlink" x="0px" y="0px"
	 viewBox="0 0 503.326 503.326" style="enable-background:new 0 0 503.326 503.326;" xml:space="preserve">
<g>
	<g>
		<path style="fill:#605F5E;" d="M121.492,251.884v-32.751c0-13.182-4.165-23.873-17.356-23.873H86.78v130.169h34.712h52.068
			v-28.195c0-13.182-10.691-23.873-23.882-23.873h-6.708C131.107,273.362,121.492,263.746,121.492,251.884"/>
		<path style="fill:#605F5E;" d="M112.814,455.595c0-19.17-15.542-34.712-34.712-34.712S43.39,436.426,43.39,455.595
			s15.542,34.712,34.712,34.712S112.814,474.765,112.814,455.595"/>
		<path style="fill:#605F5E;" d="M260.339,455.595c0-19.17-15.542-34.712-34.712-34.712s-34.712,15.542-34.712,34.712
			s15.542,34.712,34.712,34.712S260.339,474.765,260.339,455.595"/>
		<path style="fill:#605F5E;" d="M347.119,351.46h-43.39c-4.799,0-8.678-3.888-8.678-8.678s3.879-8.678,8.678-8.678h43.39
			c4.799,0,8.678,3.888,8.678,8.678S351.918,351.46,347.119,351.46"/>
		<path style="fill:#605F5E;" d="M347.119,386.172h-43.39c-4.799,0-8.678-3.888-8.678-8.678s3.879-8.678,8.678-8.678h43.39
			c4.799,0,8.678,3.888,8.678,8.678S351.918,386.172,347.119,386.172"/>
		<path style="fill:#605F5E;" d="M347.119,420.884h-43.39c-4.799,0-8.678-3.888-8.678-8.678s3.879-8.678,8.678-8.678h43.39
			c4.799,0,8.678,3.888,8.678,8.678S351.918,420.884,347.119,420.884"/>
	</g>
	<g>
		<path style="fill:#C0C0C0;" d="M381.831,420.884V229.968h-34.712v182.237v43.39h34.712h86.78c19.17,0,34.712-15.542,34.712-34.712
			H381.831z"/>
		<path style="fill:#C0C0C0;" d="M52.068,229.968c0-14.379-11.655-26.034-26.034-26.034S0,215.589,0,229.968
			c0,14.379,11.655,26.034,26.034,26.034S52.068,244.348,52.068,229.968"/>
	</g>
	<path style="fill:#797979;" d="M190.915,13.019H60.746v34.712h130.169c13.017,0,33.809,25.557,50.888,82.666
		c17.295,57.804,27.214,109.177,27.214,247.096h34.712C303.729,154.652,261.537,13.019,190.915,13.019"/>
	<path style="fill:#605F5E;" d="M86.78,325.426H0v-33.948c0-19.595,15.881-35.476,35.476-35.476H86.78V325.426z"/>
	<path style="fill:#797979;" d="M86.78,256.002v-60.746h7.229l21.053-147.525H80.098L49.273,218.453
		c1.727,3.489,2.794,7.359,2.794,11.516c0,7.09-2.855,13.503-7.454,18.198l-1.224,7.836H86.78z"/>
	<path style="fill:#FBD077;" d="M0,377.494v51.46c0,14.709,11.932,26.641,26.641,26.641H43.39c0-19.17,15.542-34.712,34.712-34.712
		s34.712,15.542,34.712,34.712h78.102c0-19.17,15.542-34.712,34.712-34.712s34.712,15.542,34.712,34.712h16.748
		c14.709,0,26.641-11.932,26.641-26.641v-51.46H0z"/>
	<path style="fill:#E2B566;" d="M0,325.426v52.068h269.017c0-18.432-0.191-35.701-0.538-52.068H0z"/>
	<g>
		<path style="fill:#605F5E;" d="M214.19,209.544l-30.685,30.685c-6.777,6.777-17.764,6.777-24.541,0
			c-6.777-6.777-6.777-17.772,0-24.55l30.685-30.677c6.777-6.777,17.764-6.777,24.541,0S220.967,202.766,214.19,209.544"/>
		<polygon style="fill:#605F5E;" points="267.95,304.808 210.692,213.047 184.789,238.951 239.772,325.427 268.479,325.427 		"/>
	</g>
	<polygon style="fill:#A98258;" points="381.835,420.884 503.326,420.884 503.326,299.392 381.835,299.392 	"/>
	<polygon style="fill:#C69666;" points="381.835,299.392 503.326,299.392 503.326,177.9 381.835,177.9 	"/>
	<g>
		<polygon style="fill:#E8D5B2;" points="425.225,212.612 459.937,212.612 459.937,177.9 425.225,177.9 		"/>
		<polygon style="fill:#E8D5B2;" points="425.225,334.104 459.937,334.104 459.937,299.392 425.225,299.392 		"/>
	</g>
</g>
<g>
</g>
<g>
</g>
<g>
</g>
<g>
</g>
<g>
</g>
<g>
</g>
<g>
</g>
<g>
</g>
<g>
</g>
<g>
</g>
<g>
</g>
<g>
</g>
<g>
</g>
<g>
</g>
<g>
</g>
</svg>
