<?xml version="1.0" encoding="iso-8859-1"?>
<!-- Generator: Adobe Illustrator 19.0.0, SVG Export Plug-In . SVG Version: 6.00 Build 0)  -->
<svg version="1.1" id="Layer_1" xmlns="http://www.w3.org/2000/svg" xmlns:xlink="http://www.w3.org/1999/xlink" x="0px" y="0px"
	 viewBox="0 0 503.23 503.23" style="enable-background:new 0 0 503.23 503.23;" xml:space="preserve">
<g>
	<path style="fill:#6D7CA0;" d="M406.462,433.852H55.117c-6.526,0-11.819-5.294-11.819-11.819v-22.892L1.392,301.357
		c-4.808-11.221,3.428-23.708,15.638-23.708h477.522c4.79,0,8.678,3.888,8.678,8.678v65.562c0,2.456-1.041,4.799-2.872,6.448
		l-76.479,68.834C419.097,431.475,412.893,433.852,406.462,433.852"/>
	<polygon style="fill:#434C6D;" points="494.554,277.649 373.062,277.649 373.062,190.869 459.842,190.869 	"/>
	<polygon style="fill:#6D7CA0;" points="390.423,190.869 442.491,190.869 442.491,147.479 390.423,147.479 	"/>
	<path style="fill:#434C6D;" d="M43.3,399.141v22.892c0,6.526,5.294,11.819,11.819,11.819h351.345c6.43,0,12.635-2.378,17.417-6.682
		l31.137-28.03H43.3z"/>
	<polygon style="fill:#6D7CA0;" points="470.256,216.903 433.808,216.903 433.808,251.615 484.14,251.615 	"/>
	<g>
		<path style="fill:#434C6D;" d="M277.605,338.395c0-14.379-11.655-26.034-26.034-26.034s-26.034,11.655-26.034,26.034
			s11.655,26.034,26.034,26.034S277.605,352.774,277.605,338.395"/>
		<path style="fill:#434C6D;" d="M425.13,338.395c0-14.379-11.655-26.034-26.034-26.034s-26.034,11.655-26.034,26.034
			s11.655,26.034,26.034,26.034S425.13,352.774,425.13,338.395"/>
		<path style="fill:#434C6D;" d="M130.079,338.395c0-14.379-11.655-26.034-26.034-26.034s-26.034,11.655-26.034,26.034
			s11.655,26.034,26.034,26.034S130.079,352.774,130.079,338.395"/>
	</g>
	<polygon style="fill:#FFD479;" points="121.406,277.649 225.541,277.649 225.541,208.225 121.406,208.225 	"/>
	<polygon style="fill:#48A0DC;" points="225.541,277.649 329.677,277.649 329.677,208.225 225.541,208.225 	"/>
	<polygon style="fill:#EE8472;" points="199.507,208.225 303.643,208.225 303.643,138.802 199.507,138.802 	"/>
	<polygon style="fill:#48A0DC;" points="156.118,138.802 260.253,138.802 260.253,69.378 156.118,69.378 	"/>
	<polygon style="fill:#4FBA6F;" points="95.372,208.225 199.507,208.225 199.507,138.802 95.372,138.802 	"/>
	<polygon style="fill:#48A0DC;" points="17.27,277.649 121.406,277.649 121.406,208.225 17.27,208.225 	"/>
	<g>
		<path style="fill:#337FAA;" d="M225.537,104.09c4.79,0,8.678-3.888,8.678-8.678V69.378h-17.356v26.034
			C216.859,100.202,220.747,104.09,225.537,104.09"/>
		<path style="fill:#337FAA;" d="M190.825,104.09c4.79,0,8.678-3.888,8.678-8.678V69.378h-17.356v26.034
			C182.147,100.202,186.035,104.09,190.825,104.09"/>
		<path style="fill:#337FAA;" d="M294.961,242.937c4.79,0,8.678-3.888,8.678-8.678v-26.034h-17.356v26.034
			C286.283,239.049,290.171,242.937,294.961,242.937"/>
		<path style="fill:#337FAA;" d="M260.249,242.937c4.79,0,8.678-3.888,8.678-8.678v-26.034h-17.356v26.034
			C251.571,239.049,255.459,242.937,260.249,242.937"/>
		<path style="fill:#337FAA;" d="M86.69,242.937c4.79,0,8.678-3.888,8.678-8.678v-26.034H78.012v26.034
			C78.012,239.049,81.899,242.937,86.69,242.937"/>
		<path style="fill:#337FAA;" d="M51.978,242.937c4.79,0,8.678-3.888,8.678-8.678v-26.034H43.3v26.034
			C43.3,239.049,47.187,242.937,51.978,242.937"/>
	</g>
	<g>
		<path style="fill:#DB776A;" d="M268.927,173.513c4.79,0,8.678-3.888,8.678-8.678v-26.034h-17.356v26.034
			C260.249,169.626,264.137,173.513,268.927,173.513"/>
		<path style="fill:#DB776A;" d="M234.215,173.513c4.79,0,8.678-3.888,8.678-8.678v-26.034h-17.356v26.034
			C225.537,169.626,229.425,173.513,234.215,173.513"/>
	</g>
	<g>
		<path style="fill:#308C47;" d="M130.079,173.513c4.79,0,8.678-3.888,8.678-8.678v-26.034h-17.356v26.034
			C121.401,169.626,125.289,173.513,130.079,173.513"/>
		<path style="fill:#308C47;" d="M164.791,173.513c4.79,0,8.678-3.888,8.678-8.678v-26.034h-17.356v26.034
			C156.113,169.626,160.001,173.513,164.791,173.513"/>
	</g>
	<g>
		<path style="fill:#F89954;" d="M190.825,242.937c4.79,0,8.678-3.888,8.678-8.678v-26.034h-17.356v26.034
			C182.147,239.049,186.035,242.937,190.825,242.937"/>
		<path style="fill:#F89954;" d="M156.113,242.937c4.79,0,8.678-3.888,8.678-8.678v-26.034h-17.356v26.034
			C147.435,239.049,151.323,242.937,156.113,242.937"/>
	</g>
</g>
<g>
</g>
<g>
</g>
<g>
</g>
<g>
</g>
<g>
</g>
<g>
</g>
<g>
</g>
<g>
</g>
<g>
</g>
<g>
</g>
<g>
</g>
<g>
</g>
<g>
</g>
<g>
</g>
<g>
</g>
</svg>
